<?xml version="1.0" encoding="utf-8"?>
<!-- Generator: Adobe Illustrator 16.0.0, SVG Export Plug-In . SVG Version: 6.00 Build 0)  -->
<!DOCTYPE svg PUBLIC "-//W3C//DTD SVG 1.1//EN" "http://www.w3.org/Graphics/SVG/1.1/DTD/svg11.dtd">
<svg version="1.1"
	 id="svg2" xmlns:rdf="http://www.w3.org/1999/02/22-rdf-syntax-ns#" xmlns:svg="http://www.w3.org/2000/svg" xmlns:cc="http://creativecommons.org/ns#" xmlns:dc="http://purl.org/dc/elements/1.1/"
	 xmlns="http://www.w3.org/2000/svg" xmlns:xlink="http://www.w3.org/1999/xlink" x="0px" y="0px" width="173.334px" height="80px"
	 viewBox="0 0 173.334 80" enable-background="new 0 0 173.334 80" xml:space="preserve">
<text transform="matrix(1 0 0 1 4.3152 63.6895)" fill="#FFFFFF" font-family="'Ubuntu-Bold'" font-size="64.4133">C</text>
<text transform="matrix(1 0 0 1 46.0554 63.6895)" fill="#FFFFFF" font-family="'Ubuntu-Bold'" font-size="64.4133">r</text>
<text transform="matrix(1 0 0 1 73.2371 63.6895)" fill="#FFFFFF" font-family="'Ubuntu-Bold'" font-size="64.4133">i</text>
<text transform="matrix(1 0 0 1 91.8533 63.6895)" fill="#F8DF1E" font-family="'Ubuntu-Bold'" font-size="64.4133">u</text>
<text transform="matrix(1 0 0 1 129.7927 63.6895)" fill="#F8DF1E" font-family="'Ubuntu-Bold'" font-size="64.4133">p</text>
<g id="g18">
	<g>
		<defs>
			<rect id="SVGID_1_" x="0" width="173.334" height="80"/>
		</defs>
		<clipPath id="SVGID_2_">
			<use xlink:href="#SVGID_1_"  overflow="visible"/>
		</clipPath>
		<g id="g20" clip-path="url(#SVGID_2_)">
			<text transform="matrix(1 0 0 1 34.1462 75.9004)" fill="#FCFCFC" font-family="'Ubuntu-Bold'" font-size="13.7843">P</text>
			<text transform="matrix(1 0 0 1 43.0232 75.9004)" fill="#FCFCFC" font-family="'Ubuntu-Bold'" font-size="13.7843">U</text>
			<text transform="matrix(1 0 0 1 52.7683 75.9004)" fill="#FCFCFC" font-family="'Ubuntu-Bold'" font-size="13.7843">B</text>
			<text transform="matrix(1 0 0 1 62.032 75.9004)" fill="#FCFCFC" font-family="'Ubuntu-Bold'" font-size="13.7843">L</text>
			<text transform="matrix(1 0 0 1 69.7917 75.9004)" fill="#FCFCFC" font-family="'Ubuntu-Bold'" font-size="13.7843">I</text>
			<text transform="matrix(1 0 0 1 74.1482 75.9004)" fill="#FCFCFC" font-family="'Ubuntu-Bold'" font-size="13.7843">C</text>
			<text transform="matrix(1 0 0 1 83.0798 75.9004)" fill="#FCFCFC" font-family="'Ubuntu-Bold'" font-size="13.7843">I</text>
			<text transform="matrix(1 0 0 1 87.4363 75.9004)" fill="#FCFCFC" font-family="'Ubuntu-Bold'" font-size="13.7843">D</text>
			<text transform="matrix(1 0 0 1 97.2644 75.9004)" fill="#FCFCFC" font-family="'Ubuntu-Bold'" font-size="13.7843">A</text>
			<text transform="matrix(1 0 0 1 107.2029 75.9004)" fill="#FCFCFC" font-family="'Ubuntu-Bold'" font-size="13.7843">D</text>
			<text transform="matrix(1 0 0 1 117.3621 75.9004)" fill="#FCFCFC" font-family="'Ubuntu-Bold'" font-size="13.7843">E</text>
		</g>
	</g>
</g>
<path id="path30" fill="#F8DF1E" d="M125.277,58.968h-9.712V17.907h9.712V58.968z"/>
<g id="g32" transform="translate(82.7037,44.4402)">
	<path id="path34" fill="#F8DF1E" d="M27.568-23.694h20.301L37.719-43.995L27.568-23.694z"/>
</g>
</svg>
